<svg width="94" height="94" xmlns="http://www.w3.org/2000/svg">

 <g>
  <title>background</title>
  <rect fill="none" id="canvas_background" height="96" width="96" y="-1" x="-1"/>
 </g>
 <g>
  <title>Layer 1</title>
  <g id="svg_6" fill="#028d49">
   <path id="svg_7" d="m216.666612,-75.428312c-24.70312,0 -44.80078,-20.09375 -44.80078,-44.79687s20.09766,-44.80079 44.80078,-44.80079s44.80078,20.09766 44.80078,44.80079s-20.09765,44.79687 -44.80078,44.79687zm0,-60.05859c-8.41406,0 -15.26172,6.84375 -15.26172,15.26172c0,8.41406 6.84766,15.26171 15.26172,15.26171s15.26172,-6.84765 15.26172,-15.26171c0,-8.41797 -6.84766,-15.26172 -15.26172,-15.26172zm0,0"/>
   <path id="svg_8" d="m48.295522,91.466218c-24.69922,0 -44.79688,-20.09765 -44.79688,-44.80078s20.09766,-44.80078 44.79688,-44.80078c24.70312,0 44.80078,20.09765 44.80078,44.80078s-20.09766,44.80078 -44.80078,44.80078zm0,-60.0625c-8.41407,0 -15.25782,6.84766 -15.25782,15.26172s6.84375,15.26172 15.25782,15.26172c8.41797,0 15.26172,-6.84766 15.26172,-15.26172s-6.84375,-15.26172 -15.26172,-15.26172zm0,0"/>
   <path id="svg_9" d="m385.037702,91.466218c-24.70312,0 -44.80078,-20.09765 -44.80078,-44.80078s20.09766,-44.80078 44.80078,-44.80078c24.69922,0 44.79688,20.09765 44.79688,44.80078s-20.09766,44.80078 -44.79688,44.80078zm0,-60.0625c-8.41796,0 -15.26171,6.84766 -15.26171,15.26172s6.84375,15.26172 15.26171,15.26172c8.41407,0 15.25782,-6.84766 15.25782,-15.26172s-6.84375,-15.26172 -15.25782,-15.26172zm0,0"/>
   <path id="svg_10" d="m216.666612,258.849028c-24.70312,0 -44.80078,-20.09765 -44.80078,-44.80078c0,-24.70312 20.09766,-44.79687 44.80078,-44.79687s44.80078,20.09375 44.80078,44.79687c0,24.70313 -20.09765,44.80078 -44.80078,44.80078zm0,-60.05859c-8.41406,0 -15.26172,6.84375 -15.26172,15.25781c0,8.41797 6.84766,15.26172 15.26172,15.26172s15.26172,-6.84375 15.26172,-15.26172c0,-8.41406 -6.84766,-15.25781 -15.26172,-15.25781zm0,0"/>
   <path id="svg_11" d="m48.295522,258.849028c-24.69922,0 -44.79688,-20.09765 -44.79688,-44.80078c0,-24.70312 20.09766,-44.79687 44.79688,-44.79687c24.70312,0 44.80078,20.09375 44.80078,44.79687c0,24.70313 -20.09766,44.80078 -44.80078,44.80078zm0,-60.05859c-8.41407,0 -15.25782,6.84375 -15.25782,15.25781c0,8.41797 6.84375,15.26172 15.25782,15.26172c8.41797,0 15.26172,-6.84375 15.26172,-15.26172c0,-8.41406 -6.84375,-15.25781 -15.26172,-15.25781zm0,0"/>
  </g>
 </g>
</svg>