<svg height="512pt" viewBox="0 0 512 512" width="512pt" xmlns="http://www.w3.org/2000/svg"><path d="m497.230469 334.769531h-132.921875v-157.539062h132.921875c8.15625 0 14.769531-6.613281 14.769531-14.769531s-6.613281-14.769532-14.769531-14.769532h-132.921875v-132.921875c0-8.15625-6.613282-14.769531-14.769532-14.769531s-14.769531 6.613281-14.769531 14.769531v132.921875h-157.539062v-132.921875c0-8.15625-6.613281-14.769531-14.769531-14.769531s-14.769532 6.613281-14.769532 14.769531v132.921875h-132.921875c-8.15625 0-14.769531 6.613282-14.769531 14.769532s6.613281 14.769531 14.769531 14.769531h132.921875v157.539062h-132.921875c-8.15625 0-14.769531 6.613281-14.769531 14.769531s6.613281 14.769532 14.769531 14.769532h132.921875v132.921875c0 8.15625 6.613282 14.769531 14.769532 14.769531s14.769531-6.613281 14.769531-14.769531v-132.921875h157.539062v132.921875c0 8.15625 6.613281 14.769531 14.769531 14.769531s14.769532-6.613281 14.769532-14.769531v-132.921875h132.921875c8.15625 0 14.769531-6.613282 14.769531-14.769532s-6.613281-14.769531-14.769531-14.769531zm-320 0v-157.539062h157.539062v157.539062zm0 0" fill="#3c3a40"/><path d="m108.515625 88.617188 19.097656-19.097657c5.769531-5.765625 5.769531-15.117187 0-20.886719-5.765625-5.765624-15.117187-5.765624-20.886719 0l-19.097656 19.097657-19.09375-19.097657c-5.765625-5.765624-15.117187-5.765624-20.886718 0-5.769532 5.769532-5.769532 15.121094 0 20.886719l19.09375 19.097657-19.09375 19.09375c-5.769532 5.765624-5.769532 15.117187 0 20.886718 2.882812 2.882813 6.664062 4.324219 10.445312 4.324219 3.777344 0 7.558594-1.441406 10.441406-4.324219l19.09375-19.09375 19.097656 19.09375c2.882813 2.882813 6.664063 4.324219 10.441407 4.324219 3.78125 0 7.5625-1.441406 10.445312-4.324219 5.765625-5.769531 5.765625-15.121094 0-20.886718zm0 0" fill="#b5001f"/><path d="m445.257812 88.617188 19.09375-19.097657c5.769532-5.765625 5.769532-15.117187 0-20.886719-5.765624-5.765624-15.117187-5.765624-20.886718 0l-19.09375 19.097657-19.097656-19.097657c-5.765626-5.765624-15.117188-5.765624-20.886719 0-5.769531 5.765626-5.769531 15.117188 0 20.886719l19.097656 19.097657-19.097656 19.09375c-5.769531 5.765624-5.769531 15.117187 0 20.886718 2.882812 2.882813 6.664062 4.324219 10.445312 4.324219 3.777344 0 7.558594-1.441406 10.441407-4.324219l19.097656-19.09375 19.09375 19.09375c2.882812 2.882813 6.664062 4.324219 10.441406 4.324219 3.78125 0 7.5625-1.441406 10.445312-4.324219 5.765626-5.769531 5.765626-15.121094 0-20.886718zm0 0" fill="#b5001f"/><path d="m445.257812 423.382812 19.09375-19.09375c5.769532-5.765624 5.769532-15.117187 0-20.886718-5.765624-5.765625-15.117187-5.765625-20.886718 0l-19.09375 19.09375-19.097656-19.09375c-5.765626-5.765625-15.117188-5.765625-20.886719 0s-5.769531 15.117187 0 20.886718l19.097656 19.09375-19.097656 19.097657c-5.769531 5.765625-5.769531 15.117187 0 20.886719 2.882812 2.882812 6.664062 4.324218 10.445312 4.324218 3.777344 0 7.558594-1.441406 10.441407-4.324218l19.097656-19.097657 19.09375 19.097657c2.882812 2.882812 6.664062 4.324218 10.441406 4.324218 3.78125 0 7.5625-1.441406 10.445312-4.324218 5.765626-5.769532 5.765626-15.121094 0-20.886719zm0 0" fill="#b5001f"/><path d="m276.886719 256 19.09375-19.09375c5.769531-5.769531 5.769531-15.121094 0-20.886719-5.765625-5.769531-15.117188-5.769531-20.886719 0l-19.09375 19.09375-19.09375-19.09375c-5.769531-5.769531-15.121094-5.769531-20.886719 0-5.769531 5.765625-5.769531 15.117188 0 20.886719l19.09375 19.09375-19.09375 19.09375c-5.769531 5.769531-5.769531 15.121094 0 20.886719 2.882813 2.882812 6.660157 4.328125 10.441407 4.328125s7.558593-1.445313 10.445312-4.328125l19.09375-19.09375 19.09375 19.09375c2.886719 2.882812 6.664062 4.328125 10.445312 4.328125s7.558594-1.445313 10.441407-4.328125c5.769531-5.765625 5.769531-15.117188 0-20.886719zm0 0" fill="#b5001f"/><g fill="#028d49"><path d="m256 133.90625c-24.703125 0-44.800781-20.09375-44.800781-44.796875s20.097656-44.800781 44.800781-44.800781 44.800781 20.097656 44.800781 44.800781-20.097656 44.796875-44.800781 44.796875zm0-60.058594c-8.414062 0-15.261719 6.84375-15.261719 15.261719 0 8.414063 6.847657 15.261719 15.261719 15.261719s15.261719-6.847656 15.261719-15.261719c0-8.417969-6.847657-15.261719-15.261719-15.261719zm0 0"/><path d="m87.628906 300.800781c-24.699218 0-44.796875-20.097656-44.796875-44.800781s20.097657-44.800781 44.796875-44.800781c24.703125 0 44.800782 20.097656 44.800782 44.800781s-20.097657 44.800781-44.800782 44.800781zm0-60.0625c-8.414062 0-15.257812 6.847657-15.257812 15.261719s6.84375 15.261719 15.257812 15.261719c8.417969 0 15.261719-6.847657 15.261719-15.261719s-6.84375-15.261719-15.261719-15.261719zm0 0"/><path d="m424.371094 300.800781c-24.703125 0-44.800782-20.097656-44.800782-44.800781s20.097657-44.800781 44.800782-44.800781c24.699218 0 44.796875 20.097656 44.796875 44.800781s-20.097657 44.800781-44.796875 44.800781zm0-60.0625c-8.417969 0-15.261719 6.847657-15.261719 15.261719s6.84375 15.261719 15.261719 15.261719c8.414062 0 15.257812-6.847657 15.257812-15.261719s-6.84375-15.261719-15.257812-15.261719zm0 0"/><path d="m256 468.183594c-24.703125 0-44.800781-20.097656-44.800781-44.800782 0-24.703124 20.097656-44.796874 44.800781-44.796874s44.800781 20.09375 44.800781 44.796874c0 24.703126-20.097656 44.800782-44.800781 44.800782zm0-60.058594c-8.414062 0-15.261719 6.84375-15.261719 15.257812 0 8.417969 6.847657 15.261719 15.261719 15.261719s15.261719-6.84375 15.261719-15.261719c0-8.414062-6.847657-15.257812-15.261719-15.257812zm0 0"/><path d="m87.628906 468.183594c-24.699218 0-44.796875-20.097656-44.796875-44.800782 0-24.703124 20.097657-44.796874 44.796875-44.796874 24.703125 0 44.800782 20.09375 44.800782 44.796874 0 24.703126-20.097657 44.800782-44.800782 44.800782zm0-60.058594c-8.414062 0-15.257812 6.84375-15.257812 15.257812 0 8.417969 6.84375 15.261719 15.257812 15.261719 8.417969 0 15.261719-6.84375 15.261719-15.261719 0-8.414062-6.84375-15.257812-15.261719-15.257812zm0 0"/></g></svg>