<svg width="94" height="95" xmlns="http://www.w3.org/2000/svg">

 <g>
  <title>background</title>
  <rect fill="none" id="canvas_background" height="94" width="94" y="-1" x="-1"/>
 </g>
 <g>
  <title>Layer 1</title>
  <path id="svg_2" fill="#b5001f" d="m68.51563,47.61719l19.09765,-19.09766c5.76953,-5.76562 5.76953,-15.11719 0,-20.88672c-5.76562,-5.76562 -15.11719,-5.76562 -20.88672,0l-19.09765,19.09766l-19.09375,-19.09766c-5.76563,-5.76562 -15.11719,-5.76562 -20.88672,0c-5.76953,5.76953 -5.76953,15.1211 0,20.88672l19.09375,19.09766l-19.09375,19.09375c-5.76953,5.76562 -5.76953,15.11719 0,20.88672c2.88281,2.88281 6.66406,4.32422 10.44531,4.32422c3.77734,0 7.55859,-1.44141 10.44141,-4.32422l19.09375,-19.09375l19.09765,19.09375c2.88282,2.88281 6.66407,4.32422 10.44141,4.32422c3.78125,0 7.5625,-1.44141 10.44531,-4.32422c5.76563,-5.76953 5.76563,-15.1211 0,-20.88672l-19.09765,-19.09375zm0,0"/>
 </g>
</svg>